<svg width="50" height="41" viewBox="0 0 50 41" fill="none" xmlns="http://www.w3.org/2000/svg">
<rect x="22.5" y="19.5" width="27" height="21" rx="2.5" fill="#07469C"/>
<path d="M27.2355 26.8005H28.4694L30.3501 30.0733H30.4275L32.3082 26.8005H33.5421L30.9302 31.1736V34H29.8474V31.1736L27.2355 26.8005ZM35.8684 34.109C35.3622 34.109 34.9204 33.993 34.5431 33.761C34.1658 33.5289 33.8728 33.2044 33.6643 32.7872C33.4557 32.37 33.3514 31.8826 33.3514 31.3248C33.3514 30.7647 33.4557 30.2749 33.6643 29.8554C33.8728 29.4359 34.1658 29.1101 34.5431 28.8781C34.9204 28.6461 35.3622 28.5301 35.8684 28.5301C36.3746 28.5301 36.8164 28.6461 37.1937 28.8781C37.571 29.1101 37.864 29.4359 38.0725 29.8554C38.2811 30.2749 38.3854 30.7647 38.3854 31.3248C38.3854 31.8826 38.2811 32.37 38.0725 32.7872C37.864 33.2044 37.571 33.5289 37.1937 33.761C36.8164 33.993 36.3746 34.109 35.8684 34.109ZM35.8719 33.2266C36.2 33.2266 36.4719 33.1399 36.6875 32.9665C36.9031 32.7931 37.0625 32.5622 37.1656 32.274C37.271 31.9857 37.3238 31.6681 37.3238 31.3213C37.3238 30.9768 37.271 30.6604 37.1656 30.3721C37.0625 30.0815 36.9031 29.8483 36.6875 29.6726C36.4719 29.4968 36.2 29.4089 35.8719 29.4089C35.5415 29.4089 35.2673 29.4968 35.0493 29.6726C34.8337 29.8483 34.6732 30.0815 34.5677 30.3721C34.4646 30.6604 34.413 30.9768 34.413 31.3213C34.413 31.6681 34.4646 31.9857 34.5677 32.274C34.6732 32.5622 34.8337 32.7931 35.0493 32.9665C35.2673 33.1399 35.5415 33.2266 35.8719 33.2266ZM42.9791 31.7607V28.6004H44.0337V34H43.0002V33.0649H42.944C42.8197 33.3532 42.6205 33.5934 42.3463 33.7856C42.0745 33.9754 41.7358 34.0703 41.3304 34.0703C40.9836 34.0703 40.6765 33.9941 40.4094 33.8418C40.1446 33.6871 39.936 33.4586 39.7836 33.1563C39.6337 32.854 39.5587 32.4802 39.5587 32.0349V28.6004H40.6098V31.9084C40.6098 32.2763 40.7117 32.5692 40.9156 32.7872C41.1195 33.0052 41.3843 33.1141 41.7101 33.1141C41.9069 33.1141 42.1026 33.0649 42.2971 32.9665C42.494 32.8681 42.6569 32.7192 42.7858 32.52C42.917 32.3208 42.9815 32.0677 42.9791 31.7607Z" fill="white"/>
<rect x="22.5" y="19.5" width="27" height="21" rx="2.5" stroke="white"/>
<path d="M2.74984 2.75L20.1665 9.23005L10.9998 11.0038L8.70579 20.1667L2.74984 2.75Z" fill="#07469C" stroke="white" stroke-width="1.83333" stroke-linejoin="round"/>
</svg>
