<svg width="84" height="40" viewBox="0 0 84 40" fill="none" xmlns="http://www.w3.org/2000/svg">
<rect x="0.5" y="18.5" width="55" height="21" rx="2.5" fill="#F4C311"/>
<path d="M12.0448 29.4003C12.0448 30.169 11.9042 30.8298 11.623 31.3829C11.3417 31.9337 10.9562 32.3579 10.4664 32.6555C9.97894 32.9508 9.42468 33.0984 8.80363 33.0984C8.18024 33.0984 7.62364 32.9508 7.13383 32.6555C6.64636 32.3579 6.26202 31.9325 5.98079 31.3794C5.69956 30.8263 5.55894 30.1666 5.55894 29.4003C5.55894 28.6316 5.69956 27.9718 5.98079 27.4211C6.26202 26.868 6.64636 26.4438 7.13383 26.1485C7.62364 25.8509 8.18024 25.7021 8.80363 25.7021C9.42468 25.7021 9.97894 25.8509 10.4664 26.1485C10.9562 26.4438 11.3417 26.868 11.623 27.4211C11.9042 27.9718 12.0448 28.6316 12.0448 29.4003ZM10.9691 29.4003C10.9691 28.8144 10.8742 28.321 10.6844 27.9203C10.4969 27.5172 10.2391 27.2125 9.91097 27.0063C9.58521 26.7977 9.2161 26.6934 8.80363 26.6934C8.38882 26.6934 8.01853 26.7977 7.69277 27.0063C7.36702 27.2125 7.10922 27.5172 6.91939 27.9203C6.73191 28.321 6.63816 28.8144 6.63816 29.4003C6.63816 29.9862 6.73191 30.4807 6.91939 30.8837C7.10922 31.2845 7.36702 31.5892 7.69277 31.7977C8.01853 32.004 8.38882 32.1071 8.80363 32.1071C9.2161 32.1071 9.58521 32.004 9.91097 31.7977C10.2391 31.5892 10.4969 31.2845 10.6844 30.8837C10.8742 30.4807 10.9691 29.9862 10.9691 29.4003ZM16.7352 30.7607V27.6004H17.7898V33H16.7563V32.0649H16.7C16.5758 32.3532 16.3766 32.5934 16.1024 32.7856C15.8306 32.9754 15.4919 33.0703 15.0865 33.0703C14.7396 33.0703 14.4326 32.9941 14.1654 32.8418C13.9006 32.6871 13.692 32.4586 13.5397 32.1563C13.3897 31.854 13.3147 31.4802 13.3147 31.0349V27.6004H14.3658V30.9084C14.3658 31.2763 14.4678 31.5692 14.6717 31.7872C14.8756 32.0052 15.1404 32.1141 15.4661 32.1141C15.663 32.1141 15.8587 32.0649 16.0532 31.9665C16.2501 31.8681 16.4129 31.7192 16.5418 31.52C16.6731 31.3208 16.7375 31.0677 16.7352 30.7607ZM19.2021 33V27.6004H20.218V28.4581H20.2743C20.3727 28.1675 20.5461 27.939 20.7946 27.7726C21.0453 27.6039 21.3289 27.5195 21.6453 27.5195C21.7109 27.5195 21.7882 27.5219 21.8773 27.5266C21.9687 27.5313 22.0402 27.5371 22.0917 27.5441V28.5495C22.0495 28.5378 21.9745 28.5249 21.8667 28.5109C21.7589 28.4945 21.6511 28.4863 21.5433 28.4863C21.2949 28.4863 21.0734 28.539 20.8789 28.6445C20.6868 28.7476 20.5344 28.8917 20.4219 29.0768C20.3094 29.2596 20.2532 29.4682 20.2532 29.7026V33H19.2021ZM25.3505 26.7356V25.8005H30.9223V26.7356H28.676V33H27.5933V26.7356H25.3505ZM33.6133 33.109C33.0814 33.109 32.6232 32.9953 32.2388 32.768C31.8568 32.5383 31.5615 32.2161 31.353 31.8013C31.1467 31.3841 31.0436 30.8955 31.0436 30.3353C31.0436 29.7823 31.1467 29.2948 31.353 28.873C31.5615 28.4511 31.8521 28.1218 32.2248 27.8851C32.5998 27.6484 33.038 27.5301 33.5395 27.5301C33.8442 27.5301 34.1395 27.5805 34.4254 27.6812C34.7113 27.782 34.9679 27.9402 35.1953 28.1558C35.4226 28.3714 35.6019 28.6515 35.7331 28.996C35.8644 29.3382 35.93 29.7541 35.93 30.244V30.6166H31.6377V29.8291H34.9C34.9 29.5526 34.8437 29.3077 34.7312 29.0944C34.6187 28.8788 34.4606 28.7089 34.2567 28.5847C34.0551 28.4605 33.8184 28.3984 33.5466 28.3984C33.2513 28.3984 32.9935 28.471 32.7732 28.6163C32.5552 28.7593 32.3865 28.9468 32.267 29.1788C32.1498 29.4085 32.0912 29.6581 32.0912 29.9276V30.5428C32.0912 30.9037 32.1545 31.2107 32.281 31.4638C32.4099 31.7169 32.5892 31.9102 32.8189 32.0438C33.0485 32.1751 33.3169 32.2407 33.6239 32.2407C33.8231 32.2407 34.0047 32.2126 34.1688 32.1563C34.3328 32.0977 34.4746 32.011 34.5941 31.8962C34.7137 31.7813 34.8051 31.6396 34.8683 31.4708L35.8632 31.6501C35.7835 31.943 35.6405 32.1997 35.4343 32.42C35.2304 32.6379 34.9738 32.8078 34.6644 32.9297C34.3574 33.0492 34.0071 33.109 33.6133 33.109ZM38.6676 33.1195C38.3254 33.1195 38.0161 33.0562 37.7395 32.9297C37.463 32.8008 37.2438 32.6145 37.0821 32.3707C36.9228 32.127 36.8431 31.8282 36.8431 31.4743C36.8431 31.1697 36.9017 30.9189 37.0189 30.722C37.136 30.5252 37.2942 30.3693 37.4934 30.2545C37.6926 30.1397 37.9153 30.0529 38.1614 29.9944C38.4074 29.9358 38.6582 29.8912 38.9136 29.8608C39.2371 29.8233 39.4995 29.7928 39.7011 29.7694C39.9026 29.7436 40.0491 29.7026 40.1405 29.6463C40.2319 29.5901 40.2776 29.4987 40.2776 29.3721V29.3475C40.2776 29.0405 40.1909 28.8026 40.0175 28.6339C39.8464 28.4652 39.5909 28.3808 39.2511 28.3808C38.8972 28.3808 38.6184 28.4593 38.4145 28.6163C38.2129 28.771 38.0735 28.9433 37.9961 29.1331L37.0083 28.9081C37.1255 28.58 37.2966 28.3152 37.5216 28.1136C37.7489 27.9097 38.0102 27.7621 38.3055 27.6707C38.6008 27.577 38.9113 27.5301 39.2371 27.5301C39.4527 27.5301 39.6812 27.5559 39.9226 27.6074C40.1663 27.6566 40.3936 27.748 40.6045 27.8816C40.8178 28.0152 40.9924 28.2062 41.1283 28.4546C41.2643 28.7007 41.3322 29.0206 41.3322 29.4143V33H40.3057V32.2618H40.2636C40.1956 32.3977 40.0936 32.5313 39.9577 32.6625C39.8218 32.7938 39.6472 32.9027 39.4339 32.9895C39.2207 33.0762 38.9652 33.1195 38.6676 33.1195ZM38.8961 32.2758C39.1867 32.2758 39.4351 32.2184 39.6413 32.1036C39.8499 31.9887 40.0081 31.8388 40.1159 31.6536C40.2261 31.4661 40.2811 31.2658 40.2811 31.0525V30.3564C40.2436 30.3939 40.171 30.4291 40.0632 30.4619C39.9577 30.4924 39.837 30.5193 39.7011 30.5428C39.5652 30.5638 39.4328 30.5838 39.3039 30.6025C39.175 30.6189 39.0672 30.633 38.9804 30.6447C38.7766 30.6705 38.5902 30.7138 38.4215 30.7748C38.2551 30.8357 38.1215 30.9236 38.0207 31.0384C37.9223 31.1509 37.8731 31.3009 37.8731 31.4884C37.8731 31.7485 37.9692 31.9454 38.1614 32.079C38.3535 32.2102 38.5984 32.2758 38.8961 32.2758ZM42.7322 33V27.6004H43.7411V28.4792H43.8079C43.9204 28.1816 44.1044 27.9496 44.3598 27.7832C44.6153 27.6145 44.9211 27.5301 45.2773 27.5301C45.6383 27.5301 45.9406 27.6145 46.1843 27.7832C46.4304 27.9519 46.612 28.1839 46.7292 28.4792H46.7854C46.9143 28.191 47.1194 27.9613 47.4006 27.7902C47.6819 27.6168 48.017 27.5301 48.406 27.5301C48.8958 27.5301 49.2954 27.6836 49.6048 27.9906C49.9165 28.2976 50.0723 28.7605 50.0723 29.3792V33H49.0212V29.4776C49.0212 29.112 48.9216 28.8472 48.7224 28.6831C48.5232 28.5191 48.2853 28.4371 48.0088 28.4371C47.6666 28.4371 47.4006 28.5425 47.2108 28.7534C47.021 28.962 46.9261 29.2304 46.9261 29.5585V33H45.8785V29.4108C45.8785 29.1179 45.7871 28.8823 45.6043 28.7042C45.4215 28.5261 45.1836 28.4371 44.8907 28.4371C44.6915 28.4371 44.5075 28.4898 44.3387 28.5952C44.1724 28.6984 44.0376 28.8425 43.9345 29.0276C43.8337 29.2128 43.7833 29.4272 43.7833 29.6709V33H42.7322Z" fill="black"/>
<rect x="0.5" y="18.5" width="55" height="21" rx="2.5" stroke="white"/>
<path d="M81.2502 2.75L63.8335 9.23005L73.0002 11.0038L75.2942 20.1667L81.2502 2.75Z" fill="#F4C311" stroke="white" stroke-width="1.83333" stroke-linejoin="round"/>
<path d="M81.2502 2.75L63.8335 9.23005L73.0002 11.0038L75.2942 20.1667L81.2502 2.75Z" fill="#F4C311" stroke="white" stroke-width="1.83333" stroke-linejoin="round"/>
</svg>
