<svg width="24" height="25" viewBox="0 0 24 25" fill="none" xmlns="http://www.w3.org/2000/svg">
<path d="M23.71 0.291234C23.575 0.156908 23.4045 0.0639048 23.2185 0.0231609C23.0325 -0.0175829 22.8388 -0.00437409 22.66 0.0612345L0.660001 8.06123C0.470269 8.1332 0.306921 8.26118 0.191652 8.42819C0.0763829 8.59519 0.0146484 8.79331 0.0146484 8.99623C0.0146484 9.19916 0.0763829 9.39728 0.191652 9.56428C0.306921 9.73128 0.470269 9.85927 0.660001 9.93123L9.25 13.3612L15.59 7.00123L17 8.41123L10.63 14.7812L14.07 23.3712C14.1441 23.5573 14.2724 23.7168 14.4382 23.8292C14.604 23.9415 14.7997 24.0014 15 24.0012C15.2021 23.9971 15.3982 23.9318 15.5624 23.814C15.7266 23.6962 15.8513 23.5313 15.92 23.3412L23.92 1.34123C23.9881 1.16431 24.0046 0.971665 23.9674 0.785758C23.9302 0.599851 23.8409 0.428345 23.71 0.291234Z" fill="white"/>
</svg>
